<svg width="25" height="22" viewBox="0 0 25 22" fill="none" xmlns="http://www.w3.org/2000/svg">
<mask id="path-1-outside-1" maskUnits="userSpaceOnUse" x="0" y="0" width="25" height="22" fill="black">
<rect fill="white" width="25" height="22"/>
<path d="M9.72346 19.1579C9.72346 19.5821 9.37951 19.9261 8.95524 19.9261C8.53096 19.9261 8.18701 19.5821 8.18701 19.1579C8.18701 18.7336 8.53096 18.3896 8.95524 18.3896C9.37951 18.3896 9.72346 18.7336 9.72346 19.1579Z"/>
<path d="M20.514 19.1579C20.514 19.5821 20.17 19.9261 19.7458 19.9261C19.3215 19.9261 18.9775 19.5821 18.9775 19.1579C18.9775 18.7336 19.3215 18.3896 19.7458 18.3896C20.17 18.3896 20.514 18.7336 20.514 19.1579Z"/>
</mask>
<path d="M10.8701 13.1001L11.0647 14.081L11.0647 14.081L10.8701 13.1001ZM19.4204 11.4043L19.615 12.3852L19.4204 11.4043ZM22.5557 8.30851L23.534 8.51546V8.51546L22.5557 8.30851ZM23.5751 3.48903L24.5535 3.69597L24.8088 2.48903H23.5751V3.48903ZM7.23964 2.48903C6.68735 2.48903 6.23964 2.93674 6.23964 3.48903C6.23964 4.04131 6.68735 4.48903 7.23964 4.48903V2.48903ZM6.36914 2.36725L5.42051 2.68363V2.68363L6.36914 2.36725ZM9.72697 12.4356L8.77834 12.7519V12.7519L9.72697 12.4356ZM1 0C0.447715 0 0 0.447715 0 1C0 1.55228 0.447715 2 1 2V0ZM11.0647 14.081L19.615 12.3852L19.2259 10.4234L10.6756 12.1192L11.0647 14.081ZM23.534 8.51546L24.5535 3.69597L22.5968 3.28208L21.5773 8.10156L23.534 8.51546ZM23.5751 2.48903H7.23964V4.48903H23.5751V2.48903ZM5.42051 2.68363L8.77834 12.7519L10.6756 12.1192L7.31778 2.05088L5.42051 2.68363ZM4.47187 0H1V2H4.47187V0ZM7.31778 2.05088C6.9093 0.826076 5.763 0 4.47187 0V2C4.90225 2 5.28435 2.27536 5.42051 2.68363L7.31778 2.05088ZM19.615 12.3852C21.5781 11.9959 23.1199 10.4735 23.534 8.51546L21.5773 8.10156C21.3288 9.27636 20.4037 10.1898 19.2259 10.4234L19.615 12.3852ZM10.6756 12.1192H10.6756L8.77834 12.7519C9.09702 13.7075 10.0766 14.2769 11.0647 14.081L10.6756 12.1192ZM7.72346 19.1579C7.72346 18.4776 8.27495 17.9261 8.95524 17.9261V21.9261C10.4841 21.9261 11.7235 20.6867 11.7235 19.1579H7.72346ZM8.95524 17.9261C9.63552 17.9261 10.187 18.4776 10.187 19.1579H6.18701C6.18701 20.6867 7.42639 21.9261 8.95524 21.9261V17.9261ZM10.187 19.1579C10.187 19.8382 9.63552 20.3896 8.95524 20.3896V16.3896C7.42639 16.3896 6.18701 17.629 6.18701 19.1579H10.187ZM8.95524 20.3896C8.27495 20.3896 7.72346 19.8382 7.72346 19.1579H11.7235C11.7235 17.629 10.4841 16.3896 8.95524 16.3896V20.3896ZM18.514 19.1579C18.514 18.4776 19.0655 17.9261 19.7458 17.9261V21.9261C21.2746 21.9261 22.514 20.6867 22.514 19.1579H18.514ZM19.7458 17.9261C20.4261 17.9261 20.9775 18.4776 20.9775 19.1579H16.9775C16.9775 20.6867 18.2169 21.9261 19.7458 21.9261V17.9261ZM20.9775 19.1579C20.9775 19.8382 20.4261 20.3896 19.7458 20.3896V16.3896C18.2169 16.3896 16.9775 17.629 16.9775 19.1579H20.9775ZM19.7458 20.3896C19.0655 20.3896 18.514 19.8382 18.514 19.1579H22.514C22.514 17.629 21.2746 16.3896 19.7458 16.3896V20.3896Z" fill="#4E565A" mask="url(#path-1-outside-1)"/>
</svg>
