<svg width="182" height="76" viewBox="0 0 182 76" fill="none" xmlns="http://www.w3.org/2000/svg">
<path fill-rule="evenodd" clip-rule="evenodd" d="M105.92 66.95H111.502V15.8359H105.92V66.95Z" fill="#004E78"/>
<path fill-rule="evenodd" clip-rule="evenodd" d="M103.456 61.3593H97.2212C94.0315 61.3593 93.9591 60.6334 93.9591 57.2936V15.8359H88.3047V57.2936C88.3047 59.9072 88.3047 61.9402 90.117 64.3362C91.5669 66.3692 94.0315 66.95 97.2212 66.95H103.456V61.3593Z" fill="#004E78"/>
<path fill-rule="evenodd" clip-rule="evenodd" d="M33.8652 15.8359V58.4551C33.8652 67.2525 40.2445 68.269 42.9268 68.269C45.3189 68.269 47.7837 67.3977 49.451 65.7156C51.7707 63.3923 51.9883 60.5607 51.9883 58.4551V15.8359H46.4064V58.4551C46.4064 59.399 46.4064 62.6663 42.8544 62.6663C39.4472 62.6663 39.4472 59.1813 39.4472 58.4551V15.8359H33.8652Z" fill="#004E78"/>
<path fill-rule="evenodd" clip-rule="evenodd" d="M147.982 66.9624V24.3432C147.982 15.5458 154.362 14.5293 157.044 14.5293C159.436 14.5293 161.901 15.4006 163.568 17.0827C165.888 19.4061 166.105 22.2377 166.105 24.3432V66.9624H160.523V24.3432C160.523 23.3993 160.523 20.132 156.971 20.132C153.564 20.132 153.564 23.617 153.564 24.3432V66.9624H147.982Z" fill="#004E78"/>
<path fill-rule="evenodd" clip-rule="evenodd" d="M0 54.4196L3.27422 59.6472H8.05859V66.95H13.6405V59.6472H20.8172V66.95H26.3991V15.8359H20.8172V54.4196H13.6405V15.8359H8.05859V54.4196H0Z" fill="#004E78"/>
<path fill-rule="evenodd" clip-rule="evenodd" d="M55.3828 54.4198L58.657 59.6474H63.4415V66.9502H69.0234V59.6474H75.8377V66.9502H81.4194V24.8392C81.4194 22.661 81.4194 20.4103 79.3897 17.5786C77.2875 14.8197 73.8803 14.5293 72.503 14.5293C68.516 14.5293 63.4415 17.0714 63.4415 24.8392V54.4198H55.3828ZM69.0234 54.4198V24.8392C69.0234 23.1693 69.0234 20.1199 72.4305 20.1199C75.8377 20.1199 75.8377 23.0976 75.8377 24.8392V54.4198H69.0234Z" fill="#004E78"/>
<path fill-rule="evenodd" clip-rule="evenodd" d="M114.465 54.4198L117.739 59.6474H122.524V66.9502H128.105V59.6474H134.92V66.9502H140.501V24.8392C140.501 22.661 140.501 20.4103 138.472 17.5786C136.37 14.8197 132.962 14.5293 131.585 14.5293C127.598 14.5293 122.524 17.0714 122.524 24.8392V54.4198H114.465ZM128.105 54.4198V24.8392C128.105 23.1693 128.105 20.1199 131.513 20.1199C134.92 20.1199 134.92 23.0976 134.92 24.8392V54.4198H128.105Z" fill="#004E78"/>
<path fill-rule="evenodd" clip-rule="evenodd" d="M101.525 7.19618L108.71 0L115.895 7.19618L108.71 14.3924L101.525 7.19618Z" fill="#00A0E3"/>
<path fill-rule="evenodd" clip-rule="evenodd" d="M78.8633 76.0004V69.1758H80.146L83.3562 73.301L86.4958 69.1758H87.7652V76.0004H86.2955V71.785C86.2955 71.7034 86.3 71.5998 86.3109 71.4743C86.3219 71.3486 86.3374 71.2098 86.3528 71.0555C86.2669 71.2319 86.1921 71.3772 86.1284 71.4897C86.0646 71.6043 86.0051 71.699 85.9546 71.7717L83.3958 75.1808H83.0789L80.5135 71.7585C80.4188 71.6284 80.3373 71.5073 80.2713 71.3926C80.2054 71.2804 80.1503 71.1679 80.1064 71.0622C80.1197 71.2033 80.1307 71.3331 80.1372 71.4477C80.1438 71.5645 80.146 71.677 80.146 71.785V76.0004H78.8633ZM92.8479 73.2769H95.8312L94.3615 70.5001L92.8479 73.2769ZM89.7983 76.0004L93.6531 69.1758H95.1799L99.0876 76.0004H97.3076L96.489 74.5108H92.1702L91.378 76.0004H89.7983ZM106.766 70.3967H102.493V74.7157H106.766V73.2504L108.352 73.5788V74.3874C108.352 75.0111 108.236 75.4363 108.001 75.661C107.767 75.8882 107.321 76.0004 106.663 76.0004H102.597C101.935 76.0004 101.488 75.8882 101.255 75.661C101.024 75.4363 100.907 75.0111 100.907 74.3874V70.791C100.907 70.1696 101.024 69.7466 101.255 69.5174C101.488 69.2904 101.935 69.1758 102.597 69.1758H106.663C107.321 69.1758 107.767 69.2904 108.001 69.5174C108.236 69.7466 108.352 70.1696 108.352 70.791V71.4367L106.766 71.688V70.3967ZM111.622 76.0004V69.1758H113.208V71.8223H118.157V69.1758H119.756V76.0004H118.157V73.0631H113.208V76.0004H111.622ZM123.239 76.0004V69.1758H124.825V76.0004H123.239ZM128.295 76.0004V69.1758H129.377L134.176 73.1974C134.339 73.3319 134.482 73.4574 134.607 73.5764C134.733 73.6955 134.845 73.8167 134.948 73.9399C134.924 73.5567 134.906 73.2855 134.898 73.1269C134.889 72.9682 134.884 72.8449 134.884 72.7589V69.1758H136.308V76.0004H135.226L130.222 71.785C130.101 71.677 129.996 71.5799 129.905 71.4941C129.815 71.4081 129.732 71.32 129.655 71.2295C129.674 71.4391 129.692 71.6395 129.703 71.8268C129.714 72.0141 129.718 72.175 129.718 72.3138V76.0004H128.295ZM139.78 76.0004V69.1758H146.757V70.3372H141.366V71.8621H144.512V73.0233H141.366V74.7157H146.82V76.0004H139.78ZM154.873 70.3569H151.307V72.2566H154.873C155.148 72.2566 155.335 72.2168 155.436 72.1375C155.538 72.0581 155.588 71.9172 155.588 71.7144V70.8925C155.588 70.6942 155.538 70.5552 155.436 70.476C155.335 70.3967 155.148 70.3569 154.873 70.3569ZM149.747 76.0004V69.1758H155.575C156.116 69.1758 156.508 69.2794 156.752 69.4887C156.994 69.6981 157.115 70.0353 157.115 70.498V72.1021C157.115 72.5627 156.994 72.8977 156.752 73.1072C156.508 73.3186 156.116 73.4243 155.575 73.4243H154.686L157.83 76.0004H155.555L152.809 73.4243H151.307V76.0004H149.747ZM162.004 76.0004V72.9461L158.466 69.1758H160.581L162.919 71.7981L165.267 69.1758H167.131L163.604 72.9087V76.0004H162.004Z" fill="#5B5B5B"/>
<path fill-rule="evenodd" clip-rule="evenodd" d="M175.315 15.1253C178.219 15.1253 180.589 17.5004 180.589 20.4097C180.589 23.3212 178.219 25.6971 175.315 25.6971C172.407 25.6971 170.035 23.3212 170.035 20.4097C170.035 17.5004 172.407 15.1253 175.315 15.1253ZM173.286 20.0007H175.27C176.04 20.0007 176.985 19.8238 176.985 18.8274C176.985 17.9554 176.229 17.6908 175.491 17.6908H173.286V20.0007ZM172.361 23.9045V16.919H175.454C176.763 16.919 177.939 17.3385 177.939 18.8274C177.939 20.0114 177.046 20.5771 175.973 20.726C176.217 20.8428 176.403 20.9582 176.53 21.0756C177.334 21.8085 177.923 22.9864 178.508 23.9045H177.348C176.837 23.0961 176.346 22.2329 175.759 21.4886C175.337 20.9511 175.002 20.8027 174.355 20.8027H173.286V23.9045H172.361ZM175.315 14.5059C178.558 14.5059 181.207 17.1592 181.207 20.4097C181.207 23.6629 178.558 26.3146 175.315 26.3146C172.065 26.3146 169.418 23.6629 169.418 20.4097C169.418 17.1592 172.065 14.5059 175.315 14.5059Z" fill="#004E78"/>
</svg>
